<?xml version="1.0" encoding="utf-8"?>
<svg data-logo="logo" xmlns="http://www.w3.org/2000/svg" viewBox="0 0 192 54.2">
  <g id="logogram" transform="translate(0, 6.600000000000001) rotate(0)">
    <path d="M20.3018 10.27C20.3018 15.7928 15.8246 20.27 10.3018 20.27H0.301758V10.27C0.301758 4.74714 4.7789 0.269989 10.3018 0.269989C15.8246 0.269989 20.3018 4.74714 20.3018 10.27Z" fill="#88C390"/>
    <path d="M20.3018 30.27C20.3018 24.7471 24.7789 20.27 30.3018 20.27H40.3018V30.27C40.3018 35.7928 35.8246 40.27 30.3018 40.27C24.7789 40.27 20.3018 35.7928 20.3018 30.27Z" fill="#88C390"/>
    <path d="M0.301758 30.27C0.301758 35.7928 4.7789 40.27 10.3018 40.27H20.3018V30.27C20.3018 24.7471 15.8246 20.27 10.3018 20.27C4.7789 20.27 0.301758 24.7471 0.301758 30.27Z" fill="#88C390"/>
    <path d="M40.3018 10.27C40.3018 4.74714 35.8246 0.269989 30.3018 0.269989H20.3018V10.27C20.3018 15.7928 24.7789 20.27 30.3018 20.27C35.8246 20.27 40.3018 15.7928 40.3018 10.27Z" fill="#88C390"/>
  </g>
  <g id="logotype" transform="matrix(1, 0, 0, 1, 45.000005, 9)">
    <path fill="#1a3636" d="M28.03 3.75L26.16 7.86Q23.10 6.10 19.60 5.59L19.60 5.59L19.60 25L14.09 25L14.09 5.59Q10.59 6.10 7.50 7.86L7.50 7.86L5.63 3.75Q8.07 2.29 10.93 1.54Q13.79 0.79 16.81 0.79L16.81 0.79Q19.87 0.79 22.75 1.54Q25.62 2.29 28.03 3.75L28.03 3.75ZM34.12 9.12Q35.07 7.80 36.69 7.12Q38.30 6.44 40.41 6.44L40.41 6.44L40.41 11.33Q39.52 11.26 39.22 11.26L39.22 11.26Q36.94 11.26 35.65 12.54Q34.36 13.81 34.36 16.36L34.36 16.36L34.36 25L29.05 25L29.05 6.71L34.12 6.71L34.12 9.12ZM55.91 6.71L61.22 6.71L61.22 25L56.15 25L56.15 22.89Q54.18 25.27 50.44 25.27L50.44 25.27Q47.85 25.27 45.76 24.12Q43.67 22.96 42.48 20.82Q41.29 18.68 41.29 15.85L41.29 15.85Q41.29 13.03 42.48 10.89Q43.67 8.75 45.76 7.59Q47.85 6.44 50.44 6.44L50.44 6.44Q53.94 6.44 55.91 8.65L55.91 8.65L55.91 6.71ZM51.36 20.92Q53.36 20.92 54.69 19.54Q56.01 18.17 56.01 15.85L56.01 15.85Q56.01 13.54 54.69 12.16Q53.36 10.79 51.36 10.79L51.36 10.79Q49.32 10.79 47.99 12.16Q46.66 13.54 46.66 15.85L46.66 15.85Q46.66 18.17 47.99 19.54Q49.32 20.92 51.36 20.92L51.36 20.92ZM78.42 6.71L83.52 6.71L75.80 25L70.33 25L62.64 6.71L68.12 6.71L73.18 19.15L78.42 6.71ZM103.07 18.81L104.77 22.96Q103.07 24.12 100.50 24.76Q97.94 25.41 95.05 25.41L95.05 25.41Q91.44 25.41 88.93 24.51Q86.41 23.61 85.12 21.99Q83.83 20.38 83.83 18.30L83.83 18.30Q83.83 16.40 84.88 14.94Q85.93 13.47 87.77 12.76L87.77 12.76Q86.38 12.01 85.61 10.72Q84.85 9.43 84.85 7.83L84.85 7.83Q84.85 5.89 86.04 4.29Q87.23 2.70 89.64 1.74Q92.05 0.79 95.56 0.79L95.56 0.79Q97.87 0.79 100.08 1.25Q102.29 1.71 103.92 2.49L103.92 2.49L102.39 6.71Q99.26 5.25 95.76 5.25L95.76 5.25Q93.11 5.25 91.77 6.04Q90.42 6.84 90.42 8.20L90.42 8.20Q90.42 9.46 91.32 10.12Q92.22 10.79 94.06 10.79L94.06 10.79L100.55 10.79L100.55 15.14L93.72 15.14Q91.65 15.14 90.52 15.85Q89.40 16.57 89.40 17.93L89.40 17.93Q89.40 19.36 90.85 20.16Q92.29 20.95 95.28 20.95L95.28 20.95Q97.39 20.95 99.50 20.39Q101.61 19.83 103.07 18.81L103.07 18.81ZM115.48 25.27Q112.56 25.27 110.23 24.07Q107.90 22.86 106.59 20.72Q105.28 18.57 105.28 15.85L105.28 15.85Q105.28 13.13 106.59 10.99Q107.90 8.85 110.23 7.64Q112.56 6.44 115.48 6.44L115.48 6.44Q118.37 6.44 120.53 7.64Q122.69 8.85 123.67 11.09L123.67 11.09L119.56 13.30Q118.13 10.79 115.45 10.79L115.45 10.79Q113.37 10.79 112.01 12.15Q110.65 13.51 110.65 15.85L110.65 15.85Q110.65 18.20 112.01 19.56Q113.37 20.92 115.45 20.92L115.45 20.92Q118.17 20.92 119.56 18.40L119.56 18.40L123.67 20.65Q122.69 22.82 120.53 24.05Q118.37 25.27 115.48 25.27L115.48 25.27ZM134.45 25.27Q131.56 25.27 129.27 24.07Q126.97 22.86 125.68 20.72Q124.39 18.57 124.39 15.85L124.39 15.85Q124.39 13.13 125.68 10.99Q126.97 8.85 129.27 7.64Q131.56 6.44 134.45 6.44L134.45 6.44Q137.34 6.44 139.62 7.64Q141.90 8.85 143.19 10.99Q144.48 13.13 144.48 15.85L144.48 15.85Q144.48 18.57 143.19 20.72Q141.90 22.86 139.62 24.07Q137.34 25.27 134.45 25.27L134.45 25.27ZM134.45 20.92Q136.49 20.92 137.80 19.54Q139.11 18.17 139.11 15.85L139.11 15.85Q139.11 13.54 137.80 12.16Q136.49 10.79 134.45 10.79L134.45 10.79Q132.41 10.79 131.09 12.16Q129.76 13.54 129.76 15.85L129.76 15.85Q129.76 18.17 131.09 19.54Q132.41 20.92 134.45 20.92L134.45 20.92Z"/>
  </g>
  <path d="M 76.996 45.528 L 76.996 38.528 L 82.106 38.528 L 82.106 39.628 L 78.296 39.628 L 78.296 44.428 L 82.246 44.428 L 82.246 45.528 Z M 78.196 42.508 L 78.196 41.438 L 81.676 41.438 L 81.676 42.508 Z M 87.935 45.628 Q 87.125 45.628 86.445 45.363 Q 85.765 45.098 85.26 44.608 Q 84.755 44.118 84.475 43.468 Q 84.195 42.818 84.195 42.028 Q 84.195 41.238 84.475 40.588 Q 84.755 39.938 85.265 39.448 Q 85.775 38.958 86.455 38.693 Q 87.135 38.428 87.945 38.428 Q 88.805 38.428 89.515 38.723 Q 90.225 39.018 90.715 39.598 L 89.875 40.388 Q 89.485 39.978 89.015 39.773 Q 88.545 39.568 88.005 39.568 Q 87.455 39.568 87 39.748 Q 86.545 39.928 86.21 40.258 Q 85.875 40.588 85.685 41.038 Q 85.495 41.488 85.495 42.028 Q 85.495 42.568 85.685 43.018 Q 85.875 43.468 86.21 43.798 Q 86.545 44.128 87 44.308 Q 87.455 44.488 88.005 44.488 Q 88.545 44.488 89.015 44.283 Q 89.485 44.078 89.875 43.658 L 90.715 44.448 Q 90.225 45.028 89.515 45.328 Q 88.805 45.628 87.935 45.628 Z M 95.814 45.628 Q 95.001 45.628 94.309 45.358 Q 93.616 45.088 93.106 44.598 Q 92.596 44.108 92.316 43.454 Q 92.036 42.8 92.036 42.024 Q 92.036 41.247 92.315 40.595 Q 92.593 39.943 93.104 39.454 Q 93.614 38.966 94.305 38.697 Q 94.995 38.428 95.811 38.428 Q 96.626 38.428 97.314 38.695 Q 98.002 38.962 98.507 39.447 Q 99.012 39.933 99.294 40.589 Q 99.576 41.246 99.576 42.028 Q 99.576 42.809 99.296 43.464 Q 99.016 44.118 98.509 44.607 Q 98.002 45.095 97.314 45.362 Q 96.626 45.628 95.814 45.628 Z M 95.814 44.488 Q 96.346 44.488 96.789 44.31 Q 97.232 44.131 97.564 43.8 Q 97.896 43.468 98.081 43.017 Q 98.266 42.566 98.266 42.027 Q 98.266 41.488 98.084 41.041 Q 97.903 40.593 97.569 40.26 Q 97.236 39.927 96.79 39.748 Q 96.344 39.568 95.815 39.568 Q 95.286 39.568 94.831 39.748 Q 94.377 39.927 94.045 40.261 Q 93.713 40.594 93.524 41.041 Q 93.336 41.489 93.336 42.024 Q 93.336 42.558 93.524 43.009 Q 93.713 43.459 94.044 43.794 Q 94.376 44.128 94.829 44.308 Q 95.283 44.488 95.814 44.488 Z M 103.278 45.528 L 103.278 39.628 L 100.958 39.628 L 100.958 38.528 L 106.898 38.528 L 106.898 39.628 L 104.578 39.628 L 104.578 45.528 Z M 111.743 45.628 Q 110.313 45.628 109.498 44.818 Q 108.683 44.008 108.683 42.468 L 108.683 38.528 L 109.983 38.528 L 109.983 42.428 Q 109.983 43.508 110.448 43.998 Q 110.913 44.488 111.763 44.488 Q 112.613 44.488 113.073 43.998 Q 113.533 43.508 113.533 42.428 L 113.533 38.528 L 114.813 38.528 L 114.813 42.468 Q 114.813 44.008 113.998 44.818 Q 113.183 45.628 111.743 45.628 Z M 117.633 45.528 L 117.633 38.528 L 120.503 38.528 Q 121.903 38.528 122.698 39.193 Q 123.493 39.858 123.493 41.018 Q 123.493 41.788 123.133 42.338 Q 122.773 42.888 122.108 43.188 Q 121.443 43.488 120.513 43.488 L 118.363 43.488 L 118.933 42.908 L 118.933 45.528 Z M 122.213 45.528 L 120.443 42.988 L 121.833 42.988 L 123.613 45.528 Z M 118.933 43.048 L 118.363 42.418 L 120.453 42.418 Q 121.313 42.418 121.748 42.048 Q 122.183 41.678 122.183 41.018 Q 122.183 40.358 121.748 39.993 Q 121.313 39.628 120.453 39.628 L 118.363 39.628 L 118.933 38.988 Z M 125.945 45.528 L 125.945 38.528 L 127.245 38.528 L 127.245 45.528 Z M 132.304 45.628 Q 131.484 45.628 130.739 45.393 Q 129.994 45.158 129.544 44.788 L 129.994 43.778 Q 130.414 44.108 131.034 44.328 Q 131.654 44.548 132.304 44.548 Q 132.854 44.548 133.194 44.428 Q 133.534 44.308 133.694 44.103 Q 133.854 43.898 133.854 43.638 Q 133.854 43.318 133.624 43.123 Q 133.394 42.928 133.029 42.813 Q 132.664 42.698 132.219 42.603 Q 131.774 42.508 131.329 42.368 Q 130.884 42.228 130.514 42.013 Q 130.144 41.798 129.919 41.438 Q 129.694 41.078 129.694 40.518 Q 129.694 39.948 129.999 39.473 Q 130.304 38.998 130.929 38.713 Q 131.554 38.428 132.514 38.428 Q 133.144 38.428 133.764 38.588 Q 134.384 38.748 134.844 39.048 L 134.434 40.058 Q 133.964 39.778 133.464 39.643 Q 132.964 39.508 132.504 39.508 Q 131.974 39.508 131.634 39.638 Q 131.294 39.768 131.139 39.983 Q 130.984 40.198 130.984 40.458 Q 130.984 40.778 131.209 40.973 Q 131.434 41.168 131.799 41.278 Q 132.164 41.388 132.614 41.488 Q 133.064 41.588 133.504 41.723 Q 133.944 41.858 134.314 42.073 Q 134.684 42.288 134.909 42.643 Q 135.134 42.998 135.134 43.548 Q 135.134 44.108 134.829 44.583 Q 134.524 45.058 133.894 45.343 Q 133.264 45.628 132.304 45.628 Z M 137.423 45.528 L 137.423 38.528 L 138.493 38.528 L 141.553 43.638 L 140.993 43.638 L 144.003 38.528 L 145.073 38.528 L 145.093 45.528 L 143.843 45.528 L 143.843 40.458 L 144.093 40.458 L 141.553 44.738 L 140.963 44.738 L 138.363 40.458 L 138.663 40.458 L 138.663 45.528 Z M 151.25 45.628 Q 150.437 45.628 149.745 45.358 Q 149.052 45.088 148.542 44.598 Q 148.032 44.108 147.752 43.454 Q 147.472 42.8 147.472 42.024 Q 147.472 41.247 147.751 40.595 Q 148.029 39.943 148.54 39.454 Q 149.05 38.966 149.741 38.697 Q 150.431 38.428 151.247 38.428 Q 152.062 38.428 152.75 38.695 Q 153.438 38.962 153.943 39.447 Q 154.448 39.933 154.73 40.589 Q 155.012 41.246 155.012 42.028 Q 155.012 42.809 154.732 43.464 Q 154.452 44.118 153.945 44.607 Q 153.438 45.095 152.75 45.362 Q 152.062 45.628 151.25 45.628 Z M 151.25 44.488 Q 151.782 44.488 152.225 44.31 Q 152.668 44.131 153 43.8 Q 153.332 43.468 153.517 43.017 Q 153.702 42.566 153.702 42.027 Q 153.702 41.488 153.52 41.041 Q 153.339 40.593 153.005 40.26 Q 152.672 39.927 152.226 39.748 Q 151.78 39.568 151.251 39.568 Q 150.722 39.568 150.267 39.748 Q 149.813 39.927 149.481 40.261 Q 149.149 40.594 148.96 41.041 Q 148.772 41.489 148.772 42.024 Q 148.772 42.558 148.96 43.009 Q 149.149 43.459 149.48 43.794 Q 149.812 44.128 150.265 44.308 Q 150.719 44.488 151.25 44.488 Z" style="fill: rgb(51, 51, 51); text-wrap-mode: nowrap;" transform="matrix(1, 0, 0, 1, 3.798237, 0)"/>
</svg>