<?xml version="1.0" encoding="utf-8"?>
<svg data-logo="logo" xmlns="http://www.w3.org/2000/svg" viewBox="0 0 192 54.2">
  <g id="logogram" transform="translate(0, 6.600000000000001) rotate(0)">
    <path d="M20.3018 10.27C20.3018 15.7928 15.8246 20.27 10.3018 20.27H0.301758V10.27C0.301758 4.74714 4.7789 0.269989 10.3018 0.269989C15.8246 0.269989 20.3018 4.74714 20.3018 10.27Z" fill="#88C390"/>
    <path d="M20.3018 30.27C20.3018 24.7471 24.7789 20.27 30.3018 20.27H40.3018V30.27C40.3018 35.7928 35.8246 40.27 30.3018 40.27C24.7789 40.27 20.3018 35.7928 20.3018 30.27Z" fill="#88C390"/>
    <path d="M0.301758 30.27C0.301758 35.7928 4.7789 40.27 10.3018 40.27H20.3018V30.27C20.3018 24.7471 15.8246 20.27 10.3018 20.27C4.7789 20.27 0.301758 24.7471 0.301758 30.27Z" fill="#88C390"/>
    <path d="M40.3018 10.27C40.3018 4.74714 35.8246 0.269989 30.3018 0.269989H20.3018V10.27C20.3018 15.7928 24.7789 20.27 30.3018 20.27C35.8246 20.27 40.3018 15.7928 40.3018 10.27Z" fill="#88C390"/>
  </g>
  <g id="logotype" transform="matrix(1, 0, 0, 1, 45.000005, 9)">
    <path d="M28.03 3.75L26.16 7.86Q23.10 6.10 19.60 5.59L19.60 5.59L19.60 25L14.09 25L14.09 5.59Q10.59 6.10 7.50 7.86L7.50 7.86L5.63 3.75Q8.07 2.29 10.93 1.54Q13.79 0.79 16.81 0.79L16.81 0.79Q19.87 0.79 22.75 1.54Q25.62 2.29 28.03 3.75L28.03 3.75ZM34.12 9.12Q35.07 7.80 36.69 7.12Q38.30 6.44 40.41 6.44L40.41 6.44L40.41 11.33Q39.52 11.26 39.22 11.26L39.22 11.26Q36.94 11.26 35.65 12.54Q34.36 13.81 34.36 16.36L34.36 16.36L34.36 25L29.05 25L29.05 6.71L34.12 6.71L34.12 9.12ZM55.91 6.71L61.22 6.71L61.22 25L56.15 25L56.15 22.89Q54.18 25.27 50.44 25.27L50.44 25.27Q47.85 25.27 45.76 24.12Q43.67 22.96 42.48 20.82Q41.29 18.68 41.29 15.85L41.29 15.85Q41.29 13.03 42.48 10.89Q43.67 8.75 45.76 7.59Q47.85 6.44 50.44 6.44L50.44 6.44Q53.94 6.44 55.91 8.65L55.91 8.65L55.91 6.71ZM51.36 20.92Q53.36 20.92 54.69 19.54Q56.01 18.17 56.01 15.85L56.01 15.85Q56.01 13.54 54.69 12.16Q53.36 10.79 51.36 10.79L51.36 10.79Q49.32 10.79 47.99 12.16Q46.66 13.54 46.66 15.85L46.66 15.85Q46.66 18.17 47.99 19.54Q49.32 20.92 51.36 20.92L51.36 20.92ZM78.42 6.71L83.52 6.71L75.80 25L70.33 25L62.64 6.71L68.12 6.71L73.18 19.15L78.42 6.71ZM103.07 18.81L104.77 22.96Q103.07 24.12 100.50 24.76Q97.94 25.41 95.05 25.41L95.05 25.41Q91.44 25.41 88.93 24.51Q86.41 23.61 85.12 21.99Q83.83 20.38 83.83 18.30L83.83 18.30Q83.83 16.40 84.88 14.94Q85.93 13.47 87.77 12.76L87.77 12.76Q86.38 12.01 85.61 10.72Q84.85 9.43 84.85 7.83L84.85 7.83Q84.85 5.89 86.04 4.29Q87.23 2.70 89.64 1.74Q92.05 0.79 95.56 0.79L95.56 0.79Q97.87 0.79 100.08 1.25Q102.29 1.71 103.92 2.49L103.92 2.49L102.39 6.71Q99.26 5.25 95.76 5.25L95.76 5.25Q93.11 5.25 91.77 6.04Q90.42 6.84 90.42 8.20L90.42 8.20Q90.42 9.46 91.32 10.12Q92.22 10.79 94.06 10.79L94.06 10.79L100.55 10.79L100.55 15.14L93.72 15.14Q91.65 15.14 90.52 15.85Q89.40 16.57 89.40 17.93L89.40 17.93Q89.40 19.36 90.85 20.16Q92.29 20.95 95.28 20.95L95.28 20.95Q97.39 20.95 99.50 20.39Q101.61 19.83 103.07 18.81L103.07 18.81ZM115.48 25.27Q112.56 25.27 110.23 24.07Q107.90 22.86 106.59 20.72Q105.28 18.57 105.28 15.85L105.28 15.85Q105.28 13.13 106.59 10.99Q107.90 8.85 110.23 7.64Q112.56 6.44 115.48 6.44L115.48 6.44Q118.37 6.44 120.53 7.64Q122.69 8.85 123.67 11.09L123.67 11.09L119.56 13.30Q118.13 10.79 115.45 10.79L115.45 10.79Q113.37 10.79 112.01 12.15Q110.65 13.51 110.65 15.85L110.65 15.85Q110.65 18.20 112.01 19.56Q113.37 20.92 115.45 20.92L115.45 20.92Q118.17 20.92 119.56 18.40L119.56 18.40L123.67 20.65Q122.69 22.82 120.53 24.05Q118.37 25.27 115.48 25.27L115.48 25.27ZM134.45 25.27Q131.56 25.27 129.27 24.07Q126.97 22.86 125.68 20.72Q124.39 18.57 124.39 15.85L124.39 15.85Q124.39 13.13 125.68 10.99Q126.97 8.85 129.27 7.64Q131.56 6.44 134.45 6.44L134.45 6.44Q137.34 6.44 139.62 7.64Q141.90 8.85 143.19 10.99Q144.48 13.13 144.48 15.85L144.48 15.85Q144.48 18.57 143.19 20.72Q141.90 22.86 139.62 24.07Q137.34 25.27 134.45 25.27L134.45 25.27ZM134.45 20.92Q136.49 20.92 137.80 19.54Q139.11 18.17 139.11 15.85L139.11 15.85Q139.11 13.54 137.80 12.16Q136.49 10.79 134.45 10.79L134.45 10.79Q132.41 10.79 131.09 12.16Q129.76 13.54 129.76 15.85L129.76 15.85Q129.76 18.17 131.09 19.54Q132.41 20.92 134.45 20.92L134.45 20.92Z" style="fill: rgb(255, 255, 255);"/>
  </g>
  <path d="M 81.05 46.652 L 81.05 39.652 L 86.16 39.652 L 86.16 40.752 L 82.35 40.752 L 82.35 45.552 L 86.3 45.552 L 86.3 46.652 L 81.05 46.652 Z M 82.25 43.632 L 82.25 42.562 L 85.73 42.562 L 85.73 43.632 L 82.25 43.632 Z M 91.988 46.752 C 91.448 46.752 90.951 46.664 90.498 46.487 C 90.045 46.31 89.65 46.059 89.313 45.732 C 88.976 45.405 88.715 45.025 88.528 44.592 C 88.341 44.159 88.248 43.679 88.248 43.152 C 88.248 42.625 88.341 42.145 88.528 41.712 C 88.715 41.279 88.978 40.899 89.318 40.572 C 89.658 40.245 90.055 39.994 90.508 39.817 C 90.961 39.64 91.458 39.552 91.998 39.552 C 92.571 39.552 93.095 39.65 93.568 39.847 C 94.041 40.044 94.441 40.335 94.768 40.722 L 93.928 41.512 C 93.668 41.239 93.381 41.034 93.068 40.897 C 92.755 40.76 92.418 40.692 92.058 40.692 C 91.691 40.692 91.356 40.752 91.053 40.872 C 90.75 40.992 90.486 41.162 90.263 41.382 C 90.04 41.602 89.865 41.862 89.738 42.162 C 89.611 42.462 89.548 42.792 89.548 43.152 C 89.548 43.512 89.611 43.842 89.738 44.142 C 89.865 44.442 90.04 44.702 90.263 44.922 C 90.486 45.142 90.75 45.312 91.053 45.432 C 91.356 45.552 91.691 45.612 92.058 45.612 C 92.418 45.612 92.755 45.544 93.068 45.407 C 93.381 45.27 93.668 45.062 93.928 44.782 L 94.768 45.572 C 94.441 45.959 94.041 46.252 93.568 46.452 C 93.095 46.652 92.568 46.752 91.988 46.752 Z M 99.866 46.752 C 99.324 46.752 98.822 46.662 98.361 46.482 C 97.899 46.302 97.498 46.049 97.158 45.722 C 96.818 45.395 96.555 45.014 96.368 44.578 C 96.181 44.142 96.088 43.665 96.088 43.147 C 96.088 42.63 96.181 42.154 96.367 41.719 C 96.552 41.284 96.815 40.903 97.156 40.578 C 97.496 40.252 97.896 40 98.357 39.821 C 98.817 39.642 99.319 39.552 99.863 39.552 C 100.406 39.552 100.907 39.641 101.366 39.819 C 101.825 39.997 102.222 40.248 102.559 40.571 C 102.896 40.894 103.158 41.275 103.346 41.713 C 103.534 42.15 103.628 42.63 103.628 43.151 C 103.628 43.672 103.535 44.151 103.348 44.587 C 103.161 45.024 102.899 45.405 102.561 45.73 C 102.223 46.055 101.825 46.307 101.366 46.485 C 100.907 46.663 100.407 46.752 99.866 46.752 Z M 99.866 45.612 C 100.221 45.612 100.546 45.552 100.841 45.433 C 101.136 45.314 101.395 45.144 101.616 44.923 C 101.837 44.702 102.01 44.442 102.133 44.141 C 102.256 43.84 102.318 43.51 102.318 43.151 C 102.318 42.792 102.257 42.463 102.136 42.164 C 102.015 41.866 101.844 41.606 101.621 41.384 C 101.399 41.162 101.139 40.991 100.842 40.871 C 100.545 40.752 100.22 40.692 99.867 40.692 C 99.514 40.692 99.186 40.752 98.883 40.872 C 98.58 40.991 98.318 41.162 98.097 41.384 C 97.876 41.606 97.702 41.866 97.576 42.165 C 97.451 42.464 97.388 42.791 97.388 43.147 C 97.388 43.504 97.451 43.832 97.576 44.132 C 97.702 44.432 97.875 44.694 98.096 44.917 C 98.317 45.14 98.579 45.312 98.881 45.432 C 99.184 45.552 99.512 45.612 99.866 45.612 Z M 107.327 46.652 L 107.327 40.752 L 105.007 40.752 L 105.007 39.652 L 110.947 39.652 L 110.947 40.752 L 108.627 40.752 L 108.627 46.652 L 107.327 46.652 Z M 115.793 46.752 C 114.84 46.752 114.091 46.482 113.548 45.942 C 113.005 45.402 112.733 44.619 112.733 43.592 L 112.733 39.652 L 114.033 39.652 L 114.033 43.552 C 114.033 44.272 114.188 44.795 114.498 45.122 C 114.808 45.449 115.246 45.612 115.813 45.612 C 116.38 45.612 116.816 45.449 117.123 45.122 C 117.43 44.795 117.583 44.272 117.583 43.552 L 117.583 39.652 L 118.863 39.652 L 118.863 43.592 C 118.863 44.619 118.591 45.402 118.048 45.942 C 117.505 46.482 116.753 46.752 115.793 46.752 Z M 121.682 46.652 L 121.682 39.652 L 124.552 39.652 C 125.485 39.652 126.217 39.874 126.747 40.317 C 127.277 40.76 127.542 41.369 127.542 42.142 C 127.542 42.655 127.422 43.095 127.182 43.462 C 126.942 43.829 126.6 44.112 126.157 44.312 C 125.714 44.512 125.182 44.612 124.562 44.612 L 122.412 44.612 L 122.982 44.032 L 122.982 46.652 L 121.682 46.652 Z M 126.262 46.652 L 124.492 44.112 L 125.882 44.112 L 127.662 46.652 L 126.262 46.652 Z M 122.982 44.172 L 122.412 43.542 L 124.502 43.542 C 125.075 43.542 125.507 43.419 125.797 43.172 C 126.087 42.925 126.232 42.582 126.232 42.142 C 126.232 41.702 126.087 41.36 125.797 41.117 C 125.507 40.874 125.075 40.752 124.502 40.752 L 122.412 40.752 L 122.982 40.112 L 122.982 44.172 Z M 129.993 46.652 L 129.993 39.652 L 131.293 39.652 L 131.293 46.652 L 129.993 46.652 Z M 136.35 46.752 C 135.803 46.752 135.282 46.674 134.785 46.517 C 134.288 46.36 133.89 46.159 133.59 45.912 L 134.04 44.902 C 134.32 45.122 134.667 45.305 135.08 45.452 C 135.493 45.599 135.917 45.672 136.35 45.672 C 136.717 45.672 137.013 45.632 137.24 45.552 C 137.467 45.472 137.633 45.364 137.74 45.227 C 137.847 45.09 137.9 44.935 137.9 44.762 C 137.9 44.549 137.823 44.377 137.67 44.247 C 137.517 44.117 137.318 44.014 137.075 43.937 C 136.832 43.86 136.562 43.79 136.265 43.727 C 135.968 43.664 135.672 43.585 135.375 43.492 C 135.078 43.399 134.807 43.28 134.56 43.137 C 134.313 42.994 134.115 42.802 133.965 42.562 C 133.815 42.322 133.74 42.015 133.74 41.642 C 133.74 41.262 133.842 40.914 134.045 40.597 C 134.248 40.28 134.558 40.027 134.975 39.837 C 135.392 39.647 135.92 39.552 136.56 39.552 C 136.98 39.552 137.397 39.605 137.81 39.712 C 138.223 39.819 138.583 39.972 138.89 40.172 L 138.48 41.182 C 138.167 40.995 137.843 40.857 137.51 40.767 C 137.177 40.677 136.857 40.632 136.55 40.632 C 136.197 40.632 135.907 40.675 135.68 40.762 C 135.453 40.849 135.288 40.964 135.185 41.107 C 135.082 41.25 135.03 41.409 135.03 41.582 C 135.03 41.795 135.105 41.967 135.255 42.097 C 135.405 42.227 135.602 42.329 135.845 42.402 C 136.088 42.475 136.36 42.545 136.66 42.612 C 136.96 42.679 137.257 42.757 137.55 42.847 C 137.843 42.937 138.113 43.054 138.36 43.197 C 138.607 43.34 138.805 43.53 138.955 43.767 C 139.105 44.004 139.18 44.305 139.18 44.672 C 139.18 45.045 139.078 45.39 138.875 45.707 C 138.672 46.024 138.36 46.277 137.94 46.467 C 137.52 46.657 136.99 46.752 136.35 46.752 Z M 141.472 46.652 L 141.472 39.652 L 142.542 39.652 L 145.602 44.762 L 145.042 44.762 L 148.052 39.652 L 149.122 39.652 L 149.142 46.652 L 147.892 46.652 L 147.892 41.582 L 148.142 41.582 L 145.602 45.862 L 145.012 45.862 L 142.412 41.582 L 142.712 41.582 L 142.712 46.652 L 141.472 46.652 Z M 155.298 46.752 C 154.757 46.752 154.255 46.662 153.793 46.482 C 153.331 46.302 152.93 46.049 152.59 45.722 C 152.25 45.395 151.987 45.014 151.8 44.578 C 151.613 44.142 151.52 43.665 151.52 43.147 C 151.52 42.63 151.613 42.154 151.799 41.719 C 151.985 41.284 152.248 40.903 152.588 40.578 C 152.929 40.252 153.329 40 153.789 39.821 C 154.249 39.642 154.751 39.552 155.295 39.552 C 155.838 39.552 156.339 39.641 156.798 39.819 C 157.257 39.997 157.655 40.248 157.992 40.571 C 158.329 40.894 158.591 41.275 158.779 41.713 C 158.966 42.15 159.06 42.63 159.06 43.151 C 159.06 43.672 158.967 44.151 158.78 44.587 C 158.593 45.024 158.331 45.405 157.993 45.73 C 157.655 46.055 157.257 46.307 156.798 46.485 C 156.339 46.663 155.839 46.752 155.298 46.752 Z M 155.299 45.612 C 155.653 45.612 155.978 45.552 156.273 45.433 C 156.568 45.314 156.827 45.144 157.048 44.923 C 157.269 44.702 157.442 44.442 157.565 44.141 C 157.688 43.84 157.75 43.51 157.75 43.151 C 157.75 42.792 157.69 42.463 157.569 42.164 C 157.448 41.866 157.276 41.606 157.054 41.384 C 156.831 41.162 156.571 40.991 156.274 40.871 C 155.977 40.752 155.652 40.692 155.299 40.692 C 154.946 40.692 154.619 40.752 154.316 40.872 C 154.013 40.991 153.75 41.162 153.529 41.384 C 153.308 41.606 153.134 41.866 153.009 42.165 C 152.883 42.464 152.82 42.791 152.82 43.147 C 152.82 43.504 152.883 43.832 153.009 44.132 C 153.134 44.432 153.308 44.694 153.529 44.917 C 153.75 45.14 154.011 45.312 154.314 45.432 C 154.616 45.552 154.944 45.612 155.299 45.612 Z" style="fill: rgb(255, 255, 255); text-wrap-mode: nowrap;"/>
  <path style="fill: rgb(255, 255, 255); text-wrap-mode: nowrap;"/>
</svg>